<?xml version="1.0" encoding="UTF-8"?>
<!DOCTYPE svg PUBLIC "-//W3C//DTD SVG 1.1//EN" "http://www.w3.org/Graphics/SVG/1.1/DTD/svg11.dtd">
<svg version="1.1" xmlns="http://www.w3.org/2000/svg" xmlns:xlink="http://www.w3.org/1999/xlink" x="0" y="0" width="24" height="24" viewBox="0, 0, 24, 24">
  <g id="Vantage">
    <path d="M13.309,24 C7.405,24 2.618,18.627 2.618,12 C2.618,5.373 7.405,0 13.309,0 C19.214,0 24,5.373 24,12 C24,18.627 19.214,24 13.309,24" fill="#FCC62B" id="Fill-345"/>
    <path d="M2.618,12 C2.618,5.871 6.713,0.818 12,0.093 C11.571,0.034 11.134,0 10.691,0 C4.786,0 -0,5.373 -0,12 C-0,18.627 4.786,24 10.691,24 C11.134,24 11.571,23.966 12,23.907 C6.713,23.182 2.618,18.129 2.618,12" fill="#E5AF17" id="Fill-346"/>
    <path d="M2.618,12.429 L0,12.429 C0.009,12.717 0.026,13.004 0.052,13.286 L2.672,13.286 C2.645,13.003 2.627,12.718 2.618,12.429" fill="#CE9811" id="Fill-347"/>
    <path d="M2.717,10.286 L0.101,10.286 C0.065,10.569 0.039,10.855 0.021,11.143 L2.639,11.143 C2.657,10.855 2.681,10.569 2.717,10.286" fill="#CE9811" id="Fill-348"/>
    <path d="M2.858,14.572 L0.24,14.572 C0.296,14.862 0.361,15.147 0.436,15.429 L3.054,15.429 C2.979,15.148 2.914,14.862 2.858,14.572" fill="#CE9811" id="Fill-349"/>
    <path d="M3.468,16.715 L0.848,16.715 C0.96,17.007 1.083,17.292 1.214,17.572 L3.833,17.572 C3.702,17.292 3.579,17.007 3.468,16.715" fill="#CE9811" id="Fill-350"/>
    <path d="M3.174,8.143 L0.558,8.143 C0.473,8.425 0.394,8.71 0.327,9 L2.949,9 C3.015,8.711 3.089,8.424 3.174,8.143" fill="#CE9811" id="Fill-351"/>
    <path d="M4.042,6 L1.424,6 C1.28,6.28 1.145,6.565 1.021,6.858 L3.641,6.858 C3.765,6.565 3.898,6.279 4.042,6" fill="#CE9811" id="Fill-352"/>
    <path d="M5.823,3.429 L3.202,3.429 C2.954,3.702 2.718,3.988 2.494,4.286 L5.115,4.286 C5.338,3.988 5.575,3.702 5.823,3.429" fill="#CE9811" id="Fill-353"/>
    <path d="M8.491,1.286 L5.867,1.286 C5.421,1.539 4.993,1.826 4.586,2.143 L7.208,2.143 C7.616,1.826 8.045,1.539 8.491,1.286" fill="#CE9811" id="Fill-354"/>
    <path d="M4.809,19.286 L2.189,19.286 C2.392,19.583 2.606,19.869 2.832,20.143 L5.453,20.143 C5.227,19.869 5.012,19.584 4.809,19.286" fill="#CE9811" id="Fill-355"/>
    <path d="M4.073,21.429 C4.424,21.739 4.79,22.027 5.174,22.286 L7.799,22.286 C7.413,22.026 7.042,21.741 6.69,21.429 L4.073,21.429" fill="#CE9811" id="Fill-356"/>
    <path d="M13.346,21.653 L13.309,21.653 C13.004,21.653 12.696,21.635 12.395,21.6 C12.156,21.572 11.985,21.358 12.014,21.123 C12.042,20.889 12.252,20.724 12.499,20.749 C12.765,20.78 13.038,20.796 13.309,20.796 C13.55,20.796 13.764,20.988 13.764,21.225 C13.764,21.461 13.587,21.653 13.346,21.653 L13.346,21.653 z M15.884,21.192 C15.708,21.192 15.542,21.086 15.476,20.914 C15.391,20.693 15.505,20.445 15.73,20.362 C15.982,20.268 16.233,20.159 16.474,20.037 C16.69,19.929 16.952,20.012 17.062,20.223 C17.172,20.433 17.088,20.691 16.873,20.799 C16.602,20.937 16.321,21.059 16.038,21.164 C15.987,21.183 15.935,21.192 15.884,21.192 L15.884,21.192 z M9.978,20.864 C9.911,20.864 9.844,20.849 9.781,20.817 C9.511,20.683 9.246,20.532 8.991,20.368 C8.79,20.239 8.733,19.973 8.865,19.775 C8.998,19.578 9.267,19.522 9.47,19.652 C9.697,19.798 9.935,19.933 10.176,20.053 C10.391,20.16 10.476,20.418 10.367,20.629 C10.291,20.778 10.137,20.864 9.978,20.864 L9.978,20.864 z M18.753,19.339 C18.642,19.339 18.531,19.298 18.446,19.215 C18.275,19.049 18.273,18.778 18.443,18.609 C18.633,18.42 18.818,18.218 18.992,18.008 C19.144,17.825 19.418,17.796 19.605,17.946 C19.793,18.096 19.821,18.366 19.669,18.549 C19.477,18.78 19.273,19.004 19.063,19.212 C18.978,19.297 18.866,19.339 18.753,19.339 L18.753,19.339 z M7.312,18.736 C7.186,18.736 7.061,18.683 6.974,18.579 C6.786,18.354 6.605,18.114 6.434,17.866 C6.299,17.67 6.351,17.404 6.551,17.271 C6.751,17.139 7.022,17.19 7.157,17.386 C7.313,17.613 7.478,17.831 7.649,18.036 C7.802,18.219 7.775,18.489 7.588,18.639 C7.508,18.705 7.409,18.736 7.312,18.736 L7.312,18.736 z M20.671,16.534 C20.613,16.534 20.553,16.522 20.496,16.498 C20.276,16.404 20.174,16.151 20.271,15.934 C20.38,15.687 20.48,15.432 20.568,15.176 C20.645,14.952 20.893,14.831 21.121,14.906 C21.35,14.982 21.473,15.225 21.395,15.449 C21.299,15.729 21.19,16.007 21.071,16.276 C21,16.437 20.839,16.534 20.671,16.534 L20.671,16.534 z M5.649,15.777 C5.467,15.777 5.297,15.665 5.236,15.486 C5.139,15.208 5.053,14.922 4.981,14.637 C4.923,14.407 5.065,14.175 5.299,14.117 C5.532,14.059 5.769,14.2 5.828,14.43 C5.894,14.691 5.973,14.954 6.062,15.21 C6.14,15.433 6.018,15.677 5.79,15.753 C5.743,15.769 5.695,15.777 5.649,15.777 L5.649,15.777 z M21.496,13.249 C21.485,13.249 21.473,13.249 21.462,13.248 C21.221,13.23 21.041,13.024 21.06,12.788 C21.081,12.529 21.091,12.264 21.091,12 C21.091,11.763 21.286,11.557 21.527,11.557 C21.768,11.557 21.963,11.735 21.963,11.972 L21.963,12 C21.963,12.286 21.953,12.574 21.93,12.854 C21.912,13.079 21.722,13.249 21.496,13.249 L21.496,13.249 z M5.091,12.433 C4.85,12.433 4.655,12.246 4.655,12.009 L4.655,12 C4.655,11.711 4.666,11.417 4.69,11.127 C4.708,10.891 4.923,10.718 5.159,10.734 C5.399,10.752 5.578,10.959 5.56,11.195 C5.538,11.462 5.527,11.733 5.527,12 C5.527,12.237 5.332,12.433 5.091,12.433 L5.091,12.433 z M21.209,9.877 C21.014,9.877 20.835,9.748 20.786,9.553 C20.719,9.291 20.64,9.029 20.55,8.774 C20.472,8.55 20.594,8.306 20.821,8.229 C21.052,8.151 21.298,8.271 21.376,8.495 C21.473,8.774 21.559,9.06 21.632,9.345 C21.691,9.574 21.549,9.807 21.315,9.864 C21.279,9.873 21.244,9.877 21.209,9.877 L21.209,9.877 z M5.643,9.099 C5.596,9.099 5.549,9.091 5.503,9.076 C5.274,9 5.152,8.757 5.229,8.532 C5.326,8.252 5.436,7.974 5.556,7.705 C5.653,7.489 5.909,7.389 6.13,7.485 C6.351,7.58 6.452,7.833 6.355,8.05 C6.245,8.295 6.145,8.551 6.056,8.808 C5.994,8.986 5.825,9.099 5.643,9.099 L5.643,9.099 z M19.812,6.787 C19.673,6.787 19.535,6.721 19.45,6.599 C19.297,6.376 19.131,6.158 18.957,5.951 C18.804,5.768 18.831,5.498 19.017,5.347 C19.203,5.197 19.478,5.223 19.631,5.406 C19.822,5.634 20.004,5.874 20.173,6.118 C20.308,6.314 20.256,6.581 20.056,6.714 C19.982,6.763 19.896,6.787 19.812,6.787 L19.812,6.787 z M7.299,6.136 C7.203,6.136 7.105,6.105 7.024,6.039 C6.837,5.889 6.809,5.619 6.962,5.436 C7.154,5.205 7.358,4.983 7.568,4.775 C7.738,4.606 8.015,4.606 8.185,4.772 C8.357,4.938 8.358,5.21 8.188,5.378 C7.997,5.567 7.812,5.769 7.638,5.979 C7.552,6.082 7.426,6.136 7.299,6.136 L7.299,6.136 z M17.372,4.409 C17.29,4.409 17.208,4.386 17.134,4.339 C16.905,4.193 16.667,4.058 16.427,3.939 C16.212,3.833 16.125,3.575 16.234,3.363 C16.342,3.152 16.604,3.066 16.82,3.174 C17.089,3.307 17.355,3.457 17.61,3.621 C17.812,3.75 17.87,4.016 17.738,4.214 C17.654,4.34 17.514,4.409 17.372,4.409 L17.372,4.409 z M9.961,4.002 C9.802,4.002 9.649,3.917 9.572,3.768 C9.463,3.557 9.548,3.299 9.762,3.192 C10.035,3.055 10.316,2.933 10.599,2.829 C10.827,2.746 11.076,2.859 11.16,3.081 C11.245,3.302 11.13,3.549 10.905,3.632 C10.653,3.724 10.402,3.833 10.159,3.955 C10.096,3.987 10.028,4.002 9.961,4.002 L9.961,4.002 z M14.153,3.252 C14.136,3.252 14.119,3.251 14.102,3.249 C13.84,3.219 13.573,3.204 13.309,3.204 C13.068,3.204 12.864,3.012 12.864,2.775 C12.864,2.539 13.049,2.347 13.29,2.347 L13.309,2.347 C13.606,2.347 13.907,2.364 14.203,2.398 C14.442,2.425 14.614,2.637 14.586,2.873 C14.561,3.091 14.372,3.252 14.153,3.252 L14.153,3.252 z" fill="#FFD947" id="Fill-357"/>
    <path d="M17.565,8.808 C17.443,7.279 16.247,6.766 14.869,6.62 L14.868,4.5 L14.01,4.5 L14.01,6.565 L13.157,6.579 L13.157,4.5 L12.325,4.5 L12.325,6.62 C12.095,6.626 11.527,6.632 11.305,6.632 L9.832,6.624 L9.832,8.003 C9.832,8.003 10.934,7.985 10.922,8.003 C11.354,8.003 11.496,8.307 11.535,8.569 L11.536,10.985 L11.649,10.994 L11.536,10.994 L11.536,14.379 C11.517,14.544 11.437,14.807 11.135,14.808 C11.149,14.823 10.045,14.808 10.045,14.808 L9.832,16.349 L11.221,16.349 L12.324,16.357 L12.325,18.503 L13.13,18.503 L13.129,16.38 C13.424,16.388 13.705,16.392 13.983,16.391 L13.983,18.503 L14.92,18.503 L14.92,16.361 C16.715,16.237 18.024,15.69 18.18,13.651 C18.307,12.008 17.668,11.276 16.649,10.98 C17.267,10.598 17.656,9.927 17.565,8.808 z M15.575,9.386 C15.575,10.844 13.681,10.675 13.078,10.675 L13.078,8.096 C13.681,8.096 15.575,7.864 15.575,9.386 z M13.078,14.816 L13.078,11.974 C13.802,11.974 16.071,11.723 16.071,13.395 C16.071,14.999 13.802,14.816 13.078,14.816 z" fill="#CE9600" id="Shape"/>
  </g>
</svg>
