<?xml version="1.0" encoding="UTF-8"?>
<svg width="24px" height="25px" viewBox="0 0 24 25" version="1.1" xmlns="http://www.w3.org/2000/svg" xmlns:xlink="http://www.w3.org/1999/xlink">
    <g id="Vantage" stroke="none" stroke-width="1" fill="none" fill-rule="evenodd">
        <g id="Vantage_Tree" transform="translate(-24.000000, -17.000000)" fill-rule="nonzero">
            <g id="eye-look-optic-see-view-watch-39f267e9c535d436" transform="translate(24.000000, 17.000000)">
                <path d="M12,0.00303030303 C18.62775,0.00303030303 24,5.42954545 24,12.1242424 C24,18.8181818 18.62775,24.2454545 12,24.2454545 C5.37225,24.2454545 0,18.8181818 0,12.1242424 C0,5.42954545 5.37225,0.00303030303 12,0.00303030303 Z" id="Shape" fill="#E4E7E7"></path>
                <path d="M12,3.79015152 C16.55625,3.79015152 20.25,7.52121212 20.25,12.1234848 C20.25,16.725 16.55625,20.4568182 12,20.4568182 C7.44375,20.4568182 3.75,16.725 3.75,12.1234848 C3.75,7.52121212 7.44375,3.79015152 12,3.79015152 Z" id="Shape" fill="#64C071"></path>
                <path d="M12,7.5780303 C14.48475,7.5780303 16.5,9.61287879 16.5,12.1234848 C16.5,14.6340909 14.48475,16.6689394 12,16.6689394 C9.51525,16.6689394 7.5,14.6340909 7.5,12.1234848 C7.5,9.61287879 9.51525,7.5780303 12,7.5780303 Z" id="Shape" fill="#0C272C"></path>
                <path d="M15.375,7.5780303 C16.41075,7.5780303 17.25,8.42575758 17.25,9.4719697 C17.25,10.5181818 16.41075,11.3659091 15.375,11.3659091 C14.33925,11.3659091 13.5,10.5181818 13.5,9.4719697 C13.5,8.42575758 14.33925,7.5780303 15.375,7.5780303 Z" id="Shape" fill="#D4EDF6"></path>
                <path d="M16.37325,11.0704545 C16.0695,9.77954545 15.22425,8.70227273 14.08875,8.1 C13.728,8.44469697 13.5,8.93030303 13.5,9.4719697 C13.5,10.5181818 14.33925,11.3659091 15.375,11.3659091 C15.74325,11.3659091 16.08375,11.255303 16.37325,11.0704545 Z" id="Shape" fill="#D6DBDE"></path>
                <path d="M12.75,19.6992424 C8.19375,19.6992424 4.5,15.9674242 4.5,11.3659091 C4.5,9.25757576 5.2815,7.33787879 6.5595,5.87045455 C4.8405,7.39772727 3.75,9.62954545 3.75,12.1234848 C3.75,16.725 7.44375,20.4568182 12,20.4568182 C14.469,20.4568182 16.6785,19.355303 18.1905,17.6189394 C16.737,18.9098485 14.83725,19.6992424 12.75,19.6992424 Z" id="Shape" fill="#39AF45"></path>
            </g>
        </g>
    </g>
</svg>