<?xml version="1.0" encoding="UTF-8"?>
<!DOCTYPE svg PUBLIC "-//W3C//DTD SVG 1.1//EN" "http://www.w3.org/Graphics/SVG/1.1/DTD/svg11.dtd">
<svg version="1.1" xmlns="http://www.w3.org/2000/svg" xmlns:xlink="http://www.w3.org/1999/xlink" x="0" y="0" width="13" height="13" viewBox="0, 0, 13, 13">
  <g id="Vantage">
    <g id="Oval-3">
      <path d="M12.896,6.5 C12.896,10.09 10.009,13 6.448,13 C2.887,13 0,10.09 0,6.5 C0,2.91 2.887,0 6.448,0 C10.009,0 12.896,2.91 12.896,6.5 z" fill="#39AF45" id="path-1"/>
      <path d="M12.296,6.5 C12.296,9.758 9.677,12.4 6.448,12.4 C3.218,12.4 0.6,9.758 0.6,6.5 C0.6,3.242 3.218,0.6 6.448,0.6 C9.677,0.6 12.296,3.242 12.296,6.5 z" fill-opacity="0" stroke="#63BF70" stroke-width="1.2"/>
    </g>
    <path d="M6.716,8.385 C6.879,8.385 7.023,8.371 7.149,8.342 C7.274,8.314 7.393,8.277 7.504,8.23 L7.504,7.453 L7.002,7.453 C6.928,7.453 6.87,7.433 6.828,7.393 C6.786,7.353 6.765,7.303 6.765,7.242 L6.765,6.588 L8.572,6.588 L8.572,8.75 C8.442,8.847 8.306,8.929 8.166,8.998 C8.025,9.068 7.875,9.124 7.716,9.169 C7.556,9.213 7.386,9.246 7.206,9.267 C7.026,9.289 6.832,9.299 6.625,9.299 C6.253,9.299 5.909,9.233 5.593,9.1 C5.276,8.968 5.003,8.785 4.771,8.552 C4.54,8.318 4.358,8.042 4.227,7.722 C4.096,7.402 4.03,7.054 4.03,6.679 C4.03,6.297 4.093,5.946 4.218,5.626 C4.344,5.306 4.523,5.03 4.757,4.798 C4.991,4.565 5.274,4.385 5.605,4.256 C5.936,4.127 6.307,4.062 6.716,4.062 C6.928,4.062 7.127,4.08 7.313,4.115 C7.499,4.15 7.67,4.198 7.827,4.259 C7.984,4.32 8.128,4.393 8.258,4.477 C8.388,4.562 8.505,4.653 8.607,4.752 L8.265,5.276 C8.232,5.325 8.193,5.364 8.148,5.392 C8.103,5.42 8.053,5.434 8,5.434 C7.93,5.434 7.858,5.411 7.784,5.364 C7.691,5.307 7.603,5.259 7.52,5.218 C7.438,5.177 7.353,5.143 7.267,5.118 C7.181,5.092 7.09,5.073 6.995,5.061 C6.9,5.05 6.793,5.044 6.674,5.044 C6.453,5.044 6.254,5.083 6.078,5.162 C5.901,5.24 5.75,5.351 5.626,5.494 C5.501,5.637 5.406,5.809 5.338,6.009 C5.271,6.21 5.237,6.433 5.237,6.679 C5.237,6.951 5.274,7.192 5.349,7.403 C5.423,7.615 5.526,7.793 5.657,7.938 C5.789,8.083 5.944,8.194 6.125,8.27 C6.305,8.347 6.502,8.385 6.716,8.385 z" fill="#FFFFFF" id="G"/>
  </g>
</svg>
