<?xml version="1.0" encoding="UTF-8"?>
<!DOCTYPE svg PUBLIC "-//W3C//DTD SVG 1.1//EN" "http://www.w3.org/Graphics/SVG/1.1/DTD/svg11.dtd">
<svg version="1.1" xmlns="http://www.w3.org/2000/svg" xmlns:xlink="http://www.w3.org/1999/xlink" x="0" y="0" width="121" height="25" viewBox="0, 0, 121, 25">
  <g id="Vantage">
    <path d="M32,6.801 L33.904,6.801 C34.109,6.801 34.277,6.848 34.408,6.941 C34.539,7.034 34.632,7.158 34.688,7.312 L36.662,12.772 C36.751,13.01 36.84,13.269 36.931,13.549 C37.022,13.829 37.108,14.123 37.187,14.431 C37.252,14.123 37.328,13.829 37.414,13.549 C37.501,13.269 37.586,13.01 37.67,12.772 L39.63,7.312 C39.677,7.181 39.768,7.064 39.903,6.958 C40.038,6.853 40.204,6.801 40.4,6.801 L42.318,6.801 L38.23,17 L36.088,17 L32,6.801 z M55.25,17 L53.416,17 C53.211,17 53.042,16.952 52.909,16.857 C52.775,16.761 52.683,16.638 52.632,16.489 L52.03,14.711 L48.152,14.711 L47.55,16.489 C47.503,16.62 47.412,16.737 47.277,16.842 C47.142,16.948 46.976,17 46.78,17 L44.932,17 L48.88,6.801 L51.302,6.801 L55.25,17 z M48.698,13.101 L51.484,13.101 L50.546,10.308 C50.485,10.131 50.414,9.922 50.333,9.681 C50.251,9.441 50.17,9.181 50.091,8.901 C50.016,9.186 49.939,9.449 49.86,9.692 C49.781,9.935 49.706,10.145 49.636,10.322 L48.698,13.101 z M61.322,6.801 C61.425,6.801 61.511,6.806 61.581,6.815 C61.651,6.824 61.714,6.842 61.77,6.867 C61.826,6.893 61.88,6.929 61.931,6.976 C61.982,7.023 62.041,7.086 62.106,7.165 L66.95,13.29 C66.931,13.094 66.917,12.904 66.908,12.719 C66.899,12.535 66.894,12.361 66.894,12.198 L66.894,6.801 L68.98,6.801 L68.98,17 L67.748,17 C67.566,17 67.412,16.972 67.286,16.916 C67.16,16.86 67.039,16.757 66.922,16.608 L62.113,10.532 C62.127,10.709 62.139,10.883 62.148,11.054 C62.157,11.224 62.162,11.384 62.162,11.533 L62.162,17 L60.076,17 L60.076,6.801 L61.322,6.801 z M82.066,6.801 L82.066,8.677 L79.196,8.677 L79.196,17 L76.83,17 L76.83,8.677 L73.96,8.677 L73.96,6.801 L82.066,6.801 z M95.418,17 L93.584,17 C93.379,17 93.21,16.952 93.076,16.857 C92.943,16.761 92.851,16.638 92.8,16.489 L92.198,14.711 L88.32,14.711 L87.718,16.489 C87.671,16.62 87.58,16.737 87.445,16.842 C87.31,16.948 87.144,17 86.948,17 L85.1,17 L89.048,6.801 L91.47,6.801 L95.418,17 z M88.866,13.101 L91.652,13.101 L90.714,10.308 C90.653,10.131 90.582,9.922 90.5,9.681 C90.419,9.441 90.338,9.181 90.259,8.901 C90.184,9.186 90.107,9.449 90.028,9.692 C89.949,9.935 89.874,10.145 89.804,10.322 L88.866,13.101 z M104.626,15.292 C104.953,15.292 105.242,15.264 105.494,15.208 C105.746,15.152 105.984,15.077 106.208,14.984 L106.208,13.437 L105.2,13.437 C105.051,13.437 104.934,13.397 104.85,13.318 C104.766,13.239 104.724,13.138 104.724,13.017 L104.724,11.715 L108.35,11.715 L108.35,16.02 C108.089,16.211 107.817,16.376 107.535,16.514 C107.252,16.651 106.951,16.764 106.632,16.853 C106.312,16.942 105.971,17.007 105.609,17.049 C105.248,17.091 104.859,17.112 104.444,17.112 C103.697,17.112 103.007,16.98 102.372,16.716 C101.737,16.453 101.188,16.089 100.723,15.624 C100.259,15.16 99.895,14.61 99.632,13.972 C99.368,13.335 99.236,12.644 99.236,11.897 C99.236,11.136 99.362,10.438 99.614,9.8 C99.866,9.163 100.226,8.614 100.695,8.152 C101.164,7.69 101.731,7.331 102.396,7.074 C103.062,6.817 103.805,6.689 104.626,6.689 C105.051,6.689 105.45,6.724 105.823,6.794 C106.196,6.864 106.54,6.96 106.855,7.081 C107.171,7.202 107.459,7.347 107.72,7.515 C107.981,7.683 108.215,7.865 108.42,8.061 L107.734,9.104 C107.669,9.202 107.59,9.279 107.499,9.335 C107.409,9.391 107.309,9.419 107.202,9.419 C107.062,9.419 106.917,9.372 106.768,9.279 C106.581,9.167 106.405,9.07 106.24,8.988 C106.074,8.907 105.905,8.84 105.732,8.789 C105.559,8.738 105.377,8.7 105.186,8.677 C104.995,8.654 104.78,8.642 104.542,8.642 C104.099,8.642 103.7,8.72 103.345,8.877 C102.99,9.033 102.688,9.253 102.438,9.538 C102.189,9.823 101.996,10.164 101.861,10.563 C101.726,10.963 101.658,11.407 101.658,11.897 C101.658,12.438 101.733,12.919 101.882,13.339 C102.031,13.759 102.238,14.114 102.501,14.403 C102.765,14.692 103.078,14.913 103.439,15.064 C103.801,15.216 104.197,15.292 104.626,15.292 z M120.358,6.801 L120.358,8.621 L116.172,8.621 L116.172,11.001 L119.378,11.001 L119.378,12.751 L116.172,12.751 L116.172,15.18 L120.358,15.18 L120.358,17 L113.792,17 L113.792,6.801 L120.358,6.801 z" fill="#FFFFFF" id="VANTAGE"/>
    <g id="eye-look-optic-see-view-watch-39f267e9c535d436">
      <path d="M12,0.003 C18.628,0.003 24,5.43 24,12.124 C24,18.818 18.628,24.245 12,24.245 C5.372,24.245 0,18.818 0,12.124 C0,5.43 5.372,0.003 12,0.003 z" fill="#E4E7E7" id="Shape"/>
      <path d="M12,3.79 C16.556,3.79 20.25,7.521 20.25,12.123 C20.25,16.725 16.556,20.457 12,20.457 C7.444,20.457 3.75,16.725 3.75,12.123 C3.75,7.521 7.444,3.79 12,3.79 z" fill="#64C071" id="Shape"/>
      <path d="M12,7.578 C14.485,7.578 16.5,9.613 16.5,12.123 C16.5,14.634 14.485,16.669 12,16.669 C9.515,16.669 7.5,14.634 7.5,12.123 C7.5,9.613 9.515,7.578 12,7.578 z" fill="#0C272C" id="Shape"/>
      <path d="M15.375,7.578 C16.411,7.578 17.25,8.426 17.25,9.472 C17.25,10.518 16.411,11.366 15.375,11.366 C14.339,11.366 13.5,10.518 13.5,9.472 C13.5,8.426 14.339,7.578 15.375,7.578 z" fill="#D4EDF6" id="Shape"/>
      <path d="M16.373,11.07 C16.069,9.78 15.224,8.702 14.089,8.1 C13.728,8.445 13.5,8.93 13.5,9.472 C13.5,10.518 14.339,11.366 15.375,11.366 C15.743,11.366 16.084,11.255 16.373,11.07 z" fill="#D6DBDE" id="Shape"/>
      <path d="M12.75,19.699 C8.194,19.699 4.5,15.967 4.5,11.366 C4.5,9.258 5.282,7.338 6.56,5.87 C4.841,7.398 3.75,9.63 3.75,12.123 C3.75,16.725 7.444,20.457 12,20.457 C14.469,20.457 16.679,19.355 18.191,17.619 C16.737,18.91 14.837,19.699 12.75,19.699 z" fill="#39AF45" id="Shape"/>
    </g>
  </g>
</svg>
