<?xml version="1.0" encoding="UTF-8"?>
<svg width="134px" height="39px" viewBox="0 0 134 39" version="1.1" xmlns="http://www.w3.org/2000/svg" xmlns:xlink="http://www.w3.org/1999/xlink">
    <!-- Generator: Sketch 44.1 (41455) - http://www.bohemiancoding.com/sketch -->
    <title>Page 1</title>
    <desc>Created with Sketch.</desc>
    <defs></defs>
    <g id="Vantage" stroke="none" stroke-width="1" fill="none" fill-rule="evenodd" opacity="0.5">
        <g id="Vantage_signedIn" transform="translate(-321.000000, -477.000000)" fill="#103137">
            <path d="M442.587567,484.971916 C439.266538,482.062719 435.827021,478.999153 431.803938,477.11705 C430.531681,476.521986 429.285706,478.338008 430.15881,479.365102 C433.181541,482.909039 436.98517,485.761025 440.319451,489.000851 C441.828683,490.464308 443.254468,492.002692 444.631959,493.580684 C442.499852,493.276539 440.367632,493.003245 438.231145,492.906268 C434.405616,492.729952 430.575595,492.738765 426.745124,492.707914 C418.716703,492.6462 410.688056,492.588898 402.664576,492.531597 C394.886158,492.474295 387.107291,492.421395 379.329771,492.483108 C375.640138,492.51396 371.933097,492.580085 368.247845,492.743177 C363.755415,492.945944 325.841028,490.905071 321.726299,492.906268 C320.822545,493.347055 320.695342,495.948989 321.726299,496.5 C325.529926,498.52767 362.856423,498.98033 367.072232,499.178708 C370.928534,499.359436 374.802356,499.407914 378.662702,499.460814 C386.616549,499.566604 394.583874,499.482852 402.537721,499.425551 C410.245945,499.368249 417.954618,499.310948 425.662505,499.253646 C432.594212,499.200746 439.257721,498.75996 446.071615,498.032689 C444.141218,499.465226 442.316168,501.025615 440.535032,502.740372 C437.630788,505.535034 434.441275,508.796864 433.265494,512.737556 C432.686386,514.681497 435.073023,516.744374 436.884932,515.734883 C440.16654,513.90119 442.49609,510.493905 445.110796,507.827094 C447.83523,505.050149 450.809668,502.48027 453.766586,499.963314 C454.854596,499.033242 455.578495,496.811618 454.380791,495.639183 C450.589708,491.923138 446.575497,488.467331 442.587567,484.971916 Z" id="Page-1" transform="translate(388.000000, 496.500000) rotate(-180.000000) translate(-388.000000, -496.500000) "></path>
        </g>
    </g>
</svg>