<?xml version="1.0" encoding="UTF-8"?>
<!DOCTYPE svg PUBLIC "-//W3C//DTD SVG 1.1//EN" "http://www.w3.org/Graphics/SVG/1.1/DTD/svg11.dtd">
<svg version="1.1" xmlns="http://www.w3.org/2000/svg" xmlns:xlink="http://www.w3.org/1999/xlink" x="0" y="0" width="14" height="14" viewBox="0, 0, 14, 14">
  <g id="Layer_1">
    <g id="Vantage" opacity="0.25">
      <path d="M11.823,0.844 C12.796,0.844 13.585,1.632 13.585,2.605 L13.585,9.651 C13.585,10.624 12.796,11.413 11.823,11.413 L10.984,11.413 L10.984,12.238 C10.984,13.211 10.195,14 9.223,14 L2.177,14 C1.204,14 0.415,13.211 0.415,12.238 L0.415,5.192 C0.415,4.22 1.204,3.431 2.177,3.431 L3.016,3.431 L3.016,2.605 C3.016,1.632 3.805,0.844 4.777,0.844 L11.823,0.844 z M9.223,5.192 L2.177,5.192 L2.177,12.238 L9.223,12.238 L9.223,5.192 z M11.823,2.605 L4.777,2.605 L4.777,3.431 L9.223,3.431 C10.195,3.431 10.984,4.22 10.984,5.192 L10.984,9.651 L11.823,9.651 L11.823,2.605 z" fill="#FFFFFF"/>
    </g>
  </g>
</svg>
