<?xml version="1.0" encoding="UTF-8"?>
<!DOCTYPE svg PUBLIC "-//W3C//DTD SVG 1.1//EN" "http://www.w3.org/Graphics/SVG/1.1/DTD/svg11.dtd">
<svg version="1.1" xmlns="http://www.w3.org/2000/svg" xmlns:xlink="http://www.w3.org/1999/xlink" x="0" y="0" width="14" height="14" viewBox="0, 0, 14, 14">
  <g id="Layer_1" opacity="0.25">
    <path d="M1.308,13.711 C1.514,13.918 1.761,14 2.048,14 C2.335,14 2.583,13.918 2.788,13.711 L6.979,9.456 L11.212,13.711 C11.417,13.918 11.665,14 11.952,14 C12.239,14 12.486,13.918 12.692,13.711 C13.103,13.298 13.103,12.637 12.692,12.265 L8.417,8.01 L12.65,3.756 C13.061,3.342 13.061,2.681 12.65,2.31 C12.239,1.897 11.581,1.897 11.212,2.31 L6.979,6.565 L2.746,2.31 C2.335,1.897 1.677,1.897 1.308,2.31 C0.897,2.723 0.897,3.384 1.308,3.756 L5.541,8.01 L1.308,12.265 C0.897,12.637 0.897,13.298 1.308,13.711 L1.308,13.711 z" fill="#FFFFFF" id="Fill-2"/>
  </g>
</svg>
