<?xml version="1.0" encoding="UTF-8"?>
<!DOCTYPE svg PUBLIC "-//W3C//DTD SVG 1.1//EN" "http://www.w3.org/Graphics/SVG/1.1/DTD/svg11.dtd">
<svg version="1.1" xmlns="http://www.w3.org/2000/svg" xmlns:xlink="http://www.w3.org/1999/xlink" x="0" y="0" width="11" height="11" viewBox="0, 0, 11, 11">
  <g id="Vantage">
    <path d="M0.757,10.259 C0.928,10.431 1.134,10.5 1.373,10.5 C1.613,10.5 1.819,10.431 1.99,10.259 L5.483,6.714 L9.01,10.259 C9.181,10.431 9.387,10.5 9.627,10.5 C9.866,10.5 10.072,10.431 10.243,10.259 C10.586,9.915 10.586,9.364 10.243,9.055 L6.681,5.509 L10.209,1.963 C10.551,1.619 10.551,1.067 10.209,0.758 C9.866,0.414 9.318,0.414 9.01,0.758 L5.483,4.304 L1.955,0.758 C1.613,0.414 1.064,0.414 0.757,0.758 C0.414,1.102 0.414,1.654 0.757,1.963 L4.284,5.509 L0.757,9.055 C0.414,9.364 0.414,9.915 0.757,10.259 L0.757,10.259 z" fill="#FFFFFF" id="Fill-2"/>
  </g>
</svg>
