<?xml version="1.0" encoding="UTF-8"?>
<!DOCTYPE svg PUBLIC "-//W3C//DTD SVG 1.1//EN" "http://www.w3.org/Graphics/SVG/1.1/DTD/svg11.dtd">
<svg version="1.1" xmlns="http://www.w3.org/2000/svg" xmlns:xlink="http://www.w3.org/1999/xlink" x="0" y="0" width="16" height="17" viewBox="0, 0, 16, 17">
  <g id="Page-1">
    <path d="M12.6,2.4 C14.6,3.9 16,6.3 16,9 C16,13.4 12.4,17 8,17 C3.6,17 0,13.4 0,9 C0,6.3 1.4,3.9 3.4,2.4 L4.9,3.9 C3.2,4.9 2,6.8 2,9 C2,12.3 4.7,15 8,15 C11.3,15 14,12.3 14,9 C14,6.8 12.8,4.9 11.2,3.8 L12.6,2.4 z" fill="#000000"/>
    <path d="M9,0 L9,10 L7,10 L7,0 L9,0 z" fill="#000000"/>
  </g>
</svg>
