<?xml version="1.0" encoding="UTF-8"?>
<svg width="18px" height="16px" viewBox="0 0 18 16" version="1.1" xmlns="http://www.w3.org/2000/svg" xmlns:xlink="http://www.w3.org/1999/xlink">
    <!-- Generator: Sketch 44.1 (41455) - http://www.bohemiancoding.com/sketch -->
    <title>Page 1</title>
    <desc>Created with Sketch.</desc>
    <defs></defs>
    <g id="Vantage" stroke="none" stroke-width="1" fill="none" fill-rule="evenodd">
        <g id="Vantage_Tree" transform="translate(-661.000000, -85.000000)" fill="#FFFFFF">
            <path d="M678,92.9973925 C678,89.6939446 675.924248,86.6880765 672.833574,85.5178695 C672.530602,85.4034575 672.192543,85.5552447 672.078059,85.8580555 C671.963587,86.1608683 672.116216,86.4987502 672.418424,86.6131739 C675.05585,87.6116087 676.82781,90.1774922 676.82781,92.9972753 C676.82781,96.3015042 674.46663,99.0632944 671.342354,99.6889149 L671.455298,99.5493336 C671.659064,99.2976209 671.619373,98.928458 671.3683,98.7255609 C671.116455,98.5219023 670.747098,98.5608083 670.543333,98.8125132 L669.592453,99.9878947 C669.519191,100.05883 669.466534,100.148834 669.438298,100.249507 C669.437534,100.251796 669.436772,100.254084 669.436008,100.256373 C669.429139,100.283069 669.423798,100.310527 669.420744,100.33875 C669.418457,100.354004 669.416929,100.36926 669.416167,100.384515 C669.416167,100.392142 669.413877,100.399008 669.413877,100.407398 C669.413877,100.417314 669.416167,100.425704 669.416929,100.434856 C669.417693,100.461552 669.420744,100.487485 669.424562,100.514181 C669.426088,100.521045 669.427613,100.528674 669.429139,100.535539 C669.455849,100.662916 669.522242,100.782663 669.631381,100.870374 L670.866908,101.869571 C670.975275,101.957286 671.105781,102 671.234741,102 C671.405685,102 671.575106,101.925252 671.691094,101.782614 C671.89486,101.530902 671.855933,101.1625 671.604096,100.958842 L671.475124,100.854345 C675.18315,100.161008 677.999922,96.9026271 677.999922,92.9973808 L678,92.9973925 Z M670.455592,85.9534997 C670.458644,85.9504478 670.459408,85.9466343 670.462459,85.9428208 C670.480013,85.919938 670.495275,85.8962937 670.509011,85.8711225 C670.514354,85.861207 670.520459,85.8512916 670.525801,85.8406127 C670.536485,85.8192549 670.54488,85.7963741 670.552511,85.7727278 C670.557852,85.7582354 670.562432,85.7437431 670.566247,85.7284892 C670.570826,85.7086583 670.57388,85.689589 670.576932,85.6689947 C670.579985,85.6491639 670.581511,85.6300946 670.582273,85.6102637 C670.583037,85.6026368 670.584563,85.5950098 670.584563,85.5873809 C670.584563,85.5774655 670.582273,85.5683136 670.581511,85.5591597 C670.580747,85.5370403 670.578457,85.5141576 670.574642,85.4920382 C670.572352,85.4767843 670.569301,85.462292 670.565485,85.4470361 C670.560142,85.4241533 670.553275,85.4012706 670.54488,85.3791512 C670.540301,85.3669473 670.534959,85.3547434 670.53038,85.3425396 C670.518932,85.3188952 670.506723,85.296774 670.492985,85.2738931 C670.48688,85.2647412 670.480775,85.2563508 670.475432,85.2471969 C670.459406,85.2250776 670.441852,85.2037198 670.422011,85.1831274 C670.415906,85.1762639 670.408275,85.1693985 670.401406,85.1625331 C670.390723,85.1518561 670.380801,85.1396503 670.367827,85.1289714 L669.1323,84.1305366 C668.880455,83.926878 668.511098,83.965784 668.308094,84.2174889 C668.104329,84.4692015 668.143255,84.8376029 668.395092,85.0412615 L668.517959,85.1404177 C664.812863,85.8375627 662,89.0944796 662,92.9973827 C662,96.3244573 664.09568,99.3373548 667.215268,100.495065 C667.282424,100.520236 667.351107,100.53244 667.419033,100.53244 C667.657144,100.53244 667.880739,100.386757 667.968497,100.150312 C668.08068,99.8467376 667.926525,99.5103787 667.622799,99.3974781 C664.96017,98.4089626 663.17219,95.837065 663.17219,92.9973651 C663.17219,89.6915741 665.536497,86.9282219 668.663701,86.3051398 L668.545414,86.4515865 C668.34241,86.7032992 668.381338,87.0724621 668.632412,87.2753592 C668.740779,87.3630749 668.871284,87.4057886 669.000245,87.4057886 C669.171189,87.4057886 669.34061,87.3310402 669.456598,87.188403 L670.455592,85.9534997 Z" id="Page-1" transform="translate(670.000000, 93.000000) rotate(-270.000000) translate(-670.000000, -93.000000) "></path>
        </g>
    </g>
</svg>