<?xml version="1.0" encoding="UTF-8"?>
<!DOCTYPE svg PUBLIC "-//W3C//DTD SVG 1.1//EN" "http://www.w3.org/Graphics/SVG/1.1/DTD/svg11.dtd">
<svg version="1.1" xmlns="http://www.w3.org/2000/svg" xmlns:xlink="http://www.w3.org/1999/xlink" x="0" y="0" width="12.852" height="13.978" viewBox="0, 0, 12.852, 13.978">
  <g id="Vantage">
    <path d="M11.291,4.601 L8.691,4.601 C8.283,4.601 7.949,4.933 7.949,5.338 C7.949,5.743 8.283,6.075 8.691,6.075 L11.291,6.075 C11.328,6.075 11.365,6.112 11.365,6.13 L11.365,12.449 C11.365,12.486 11.328,12.504 11.291,12.504 L1.56,12.504 C1.523,12.504 1.486,12.467 1.486,12.448 L1.486,6.13 C1.486,6.094 1.523,6.075 1.56,6.075 L3.788,6.075 C4.197,6.075 4.531,5.743 4.531,5.338 C4.531,4.933 4.197,4.601 3.788,4.601 L1.56,4.601 C0.705,4.601 0,5.283 0,6.13 L0,12.449 C0,13.297 0.706,13.978 1.56,13.978 L11.291,13.978 C12.145,13.978 12.85,13.297 12.85,12.449 L12.852,6.13 C12.852,5.283 12.146,4.601 11.291,4.601 L11.291,4.601 z" fill="#FFFFFF" id="Fill-1"/>
    <path d="M4.049,3.385 L5.59,2.206 L5.59,9.74 C5.59,10.145 5.925,10.477 6.333,10.477 C6.741,10.477 7.076,10.145 7.076,9.74 L7.076,2.206 L8.617,3.367 L8.636,3.386 C8.785,3.478 8.915,3.515 9.064,3.515 C9.305,3.515 9.528,3.404 9.658,3.22 C9.899,2.888 9.825,2.427 9.509,2.188 L6.704,0.088 L6.667,0.088 L6.63,0.051 L6.612,0.051 L6.593,0.033 L6.537,0.033 C6.518,0.014 6.481,0.014 6.425,0.014 C6.351,-0.005 6.258,-0.005 6.184,0.014 C6.128,0.014 6.091,0.033 6.054,0.033 C6.017,0.033 5.98,0.051 5.942,0.069 L5.905,0.069 L3.157,2.207 C2.823,2.446 2.767,2.907 3.008,3.239 C3.25,3.552 3.714,3.625 4.049,3.385 L4.049,3.385 z" fill="#FFFFFF" id="Fill-2"/>
  </g>
</svg>
